HIERARCHY
ROOT pelvis
{
  OFFSET 0 100 0
  CHANNELS 6 Xposition Yposition Zposition Zrotation Xrotation Yrotation
  JOINT pelvis_right_femur
  {
    OFFSET -10.78128 -3.44521 -0.5502486
    CHANNELS 3 Zrotation Xrotation Yrotation
    JOINT right_femur_tibia
    {
      OFFSET -0.8047443 -44.0398 -0.1307829
      CHANNELS 3 Zrotation Xrotation Yrotation
      JOINT right_tibia_foot
      {
        OFFSET 3.006224 -47.83518 -5
        CHANNELS 3 Zrotation Xrotation Yrotation
        End Site
        {
          OFFSET 0 -5 15
        }
      }
    }
  }
  JOINT pelvis_left_femur
  {
    OFFSET 10.78128 -3.44521 -0.5502486
    CHANNELS 3 Zrotation Xrotation Yrotation
    JOINT left_femur_tibia
    {
      OFFSET 0.8047443 -44.0398 -0.1307829
      CHANNELS 3 Zrotation Xrotation Yrotation
      JOINT left_tibia_foot
      {
        OFFSET -4.370144 -48.10324 -4.275266
        CHANNELS 3 Zrotation Xrotation Yrotation
        End Site
        {
          OFFSET 0 -5 15
        }
      }
    }
  }
  JOINT pelvis_spine1
  {
    OFFSET 0 6.468898 -3.129235
    CHANNELS 3 Zrotation Xrotation Yrotation
    JOINT spine1
    {
      OFFSET 0 23.15396 4.99043
      CHANNELS 3 Zrotation Xrotation Yrotation
      JOINT spine2
      {
        OFFSET 0 20.79997 -5.064912
        CHANNELS 3 Zrotation Xrotation Yrotation
        JOINT neck
        {
          OFFSET 0 14.38658 9.616178
          CHANNELS 3 Zrotation Xrotation Yrotation
          End Site
          {
            OFFSET 0 20 0
          }
        }
      }
      JOINT right_manubrium
      {
        OFFSET -5.722621 16.35077 3.967754
        CHANNELS 3 Zrotation Xrotation Yrotation
        JOINT right_clavicle
        {
          OFFSET -13.16364 1.694482 -4.693211
          CHANNELS 3 Zrotation Xrotation Yrotation
          JOINT right_humerus
          {
            OFFSET -28.5034 -0.3100689 -2.792744
            CHANNELS 3 Zrotation Xrotation Yrotation
            JOINT right_radius
            {
              OFFSET -25.15693 0.02248979 -1.271978
              CHANNELS 3 Zrotation Xrotation Yrotation
              End Site
              {
                OFFSET -15 0 0
              }
            }
          }
        }
      }
      JOINT left_manubrium
      {
        OFFSET 5.722621 16.35077 3.967754
        CHANNELS 3 Zrotation Xrotation Yrotation
        JOINT left_clavicle
        {
          OFFSET 13.16364 1.694482 -4.693211
          CHANNELS 3 Zrotation Xrotation Yrotation
          JOINT left_humerus
          {
            OFFSET 29.39168 -1.063119 -2.237045
            CHANNELS 3 Zrotation Xrotation Yrotation
            JOINT left_radius
            {
              OFFSET 24.59957 -0.9528479 0.9047498
              CHANNELS 3 Zrotation Xrotation Yrotation
              End Site
              {
                OFFSET 15 -0 -0
              }
            }
          }
        }
      }
    }
  }
}
MOTION
Frames: 18
Frame Time: 0.0416666666667
37.2017 103.7155 252.8561 2.360253 -7.894438 5.425066 0.3518879 12.50666 6.455285 -1.055127e-06 38.87391 3.170474e-07 3.570431 -11.69536 -5.199116 -2.594076 -13.27755 -8.250021 -2.487717e-06 19.46435 3.559299e-06 -6.499716 -8.751551 18.05764 -2.539398 -0.2678038 6.513242 -0.3682196 9.420327 -4.21405 1.684187 22.30989 5.732074 1.654455 -16.63783 7.657016 2.393377 -20.39497 10.99396 83.205 25.78624 -9.389948 -4.481389e-07 9.46191e-07 23.10443 -25.29788 14.18809 14.85307 3.022242 -14.15216 -3.028599 -94.06342 25.79471 25.67276 8.013342e-07 1.081305e-06 -8.881926 -5.842492 5.352885 20.03982
38.66391 104.343 258.7443 2.667904 -8.43386 5.854465 -0.0735736 10.21974 6.738385 -1.136205e-06 45.32127 2.094725e-08 3.565881 -9.492395 -5.868191 -3.721328 -9.920854 -9.478121 -2.145643e-06 20.5759 2.736253e-06 -6.050394 -9.567913 18.36743 -2.830328 -0.2986957 6.053268 -0.4590892 9.504386 -4.311063 1.781424 22.5372 5.892608 1.733653 -16.54417 7.91165 2.693681 -19.59954 10.87524 83.649 25.69072 -10.20801 -3.42314e-07 1.069536e-06 21.86087 -24.6697 13.90459 14.12749 2.91148 -14.09164 -3.261334 -93.17127 26.35198 24.26931 7.501347e-07 8.261667e-07 -8.763912 -5.665066 5.615469 19.84471
40.06842 105.2175 264.2963 3.0116 -8.952341 6.439348 -0.3926717 6.850842 6.965271 -1.060528e-06 50.66867 -3.691917e-07 3.689685 -7.915057 -6.729538 -4.761025 -5.792629 -10.71524 -1.928162e-06 20.73686 2.275852e-06 -5.456167 -10.87999 18.747 -3.126613 -0.3101804 5.519573 -0.486166 9.527595 -4.533038 1.897019 22.78848 6.026959 1.757723 -16.4085 8.205429 2.908898 -18.78169 10.74119 84.39576 25.47085 -11.3766 -2.346001e-07 1.169364e-06 20.59488 -23.90069 13.66846 13.24032 2.942105 -14.23 -3.558805 -92.09086 26.94264 22.33271 7.233637e-07 6.033407e-07 -9.273428 -5.431587 6.002273 19.51483
41.38465 106.1991 269.5244 3.245257 -9.259477 7.107933 -0.4217508 2.542075 7.053866 -7.999122e-07 53.73872 -8.141947e-07 3.697828 -7.090617 -7.637277 -5.521978 -1.094047 -11.81984 -1.793286e-06 20.35927 2.327569e-06 -4.890856 -12.38802 18.96106 -3.304252 -0.3176492 4.902471 -0.3902291 9.440721 -4.882092 2.018872 22.96209 6.094095 1.713858 -16.31525 8.49188 2.992948 -17.94676 10.55815 85.23766 25.16148 -12.80668 -1.379311e-07 1.230999e-06 19.23801 -22.80014 13.45085 12.16116 3.099739 -14.55933 -3.843617 -90.75377 27.47068 20.00319 6.409762e-07 4.697807e-07 -10.34902 -5.057313 6.545318 18.9528
42.61126 107.0726 274.4872 3.394639 -9.275264 7.811701 -0.3020138 -1.95907 6.843991 -4.572419e-07 53.86247 -1.16241e-06 3.570563 -6.91821 -8.32175 -5.959398 3.22029 -12.6183 -1.75272e-06 18.86283 2.675892e-06 -4.315688 -14.04232 19.06048 -3.419089 -0.3048862 4.313867 -0.2131229 9.269406 -5.276531 2.100454 23.06304 6.136278 1.663166 -16.29405 8.706752 2.927079 -17.2439 10.37812 85.98045 24.89298 -14.19017 -6.125435e-08 1.188411e-06 17.9571 -21.77337 13.21049 11.19538 3.424036 -15.09799 -4.093263 -89.29518 27.78777 17.51574 5.530913e-07 3.892412e-07 -11.93742 -4.530132 7.164558 18.14095
43.75216 107.6499 279.3326 3.417222 -8.993711 8.496138 -0.06267978 -6.531253 6.310183 -1.110549e-07 50.87667 -1.307486e-06 3.353711 -7.284071 -8.795249 -6.075474 7.109888 -13.03032 -1.771599e-06 16.63152 3.372531e-06 -3.988622 -15.74455 18.88764 -3.443446 -0.2450854 3.735301 0.0446621 8.979589 -5.700567 2.148454 23.10835 6.165029 1.60921 -16.33502 8.859602 2.711233 -16.5975 10.18463 86.70354 24.68308 -15.53948 -1.450906e-08 1.036641e-06 16.67579 -20.94804 13.00757 10.43394 3.917281 -15.81121 -4.273545 -87.78543 27.90775 14.83 4.233927e-07 3.8433e-07 -14.02884 -3.912966 7.730995 17.17892
44.79698 107.8055 284.1541 3.341167 -8.524583 9.122927 0.2363842 -10.98964 5.533174 2.493291e-07 45.47944 -1.305952e-06 2.9791 -8.030788 -9.074023 -5.983 10.53044 -13.15648 -1.734765e-06 14.39476 4.113086e-06 -3.876927 -17.38411 18.5272 -3.39827 -0.126182 3.172667 0.3529271 8.597414 -6.109347 2.175492 23.14051 6.17817 1.566827 -16.41871 8.951845 2.393217 -15.935 9.977683 87.32431 24.55113 -16.82002 1.917619e-08 7.760733e-07 15.26271 -20.22585 12.7737 9.783957 4.525052 -16.63812 -4.381419 -86.19049 27.87947 11.93542 2.27898e-07 4.063863e-07 -16.44162 -3.188742 8.278882 16.04913
45.76221 107.5196 289.147 3.130101 -7.893917 9.661131 0.5640148 -15.01437 4.571117 5.892337e-07 38.47459 -1.114954e-06 2.542919 -8.828048 -9.196372 -5.713333 13.43844 -12.96811 -1.636113e-06 12.72617 4.986346e-06 -4.28663 -18.75878 17.80922 -3.257412 0.04391973 2.624441 0.6954279 8.140066 -6.48612 2.18985 23.20013 6.208685 1.547595 -16.58718 9.024889 2.031839 -15.24655 9.767309 88.10968 24.53764 -18.05886 2.343205e-08 4.525866e-07 13.77059 -19.77969 12.62261 9.39124 5.190437 -17.48744 -4.380538 -84.91861 27.77623 9.136186 -5.650914e-08 4.981929e-07 -18.93982 -2.502223 8.650635 15.01185
46.60476 106.7738 294.1841 2.980124 -7.368181 10.11169 0.8181732 -18.53655 3.647368 1.007068e-06 31.29441 -1.003531e-06 1.930341 -9.850116 -9.213444 -5.492785 15.74961 -12.81613 -1.403772e-06 11.88752 5.276663e-06 -4.513962 -19.99557 17.35961 -3.160452 0.2674194 2.157206 0.9983371 7.694285 -6.760909 2.208305 23.32848 6.215913 1.557336 -16.71892 9.051751 1.702105 -14.51395 9.574334 88.55861 24.61658 -19.10222 5.251909e-08 5.295713e-08 12.13273 -19.19606 12.28846 8.875967 5.835702 -18.29746 -4.345337 -83.51958 27.67228 6.255144 -3.846439e-07 4.965661e-07 -21.30299 -1.714623 9.134028 13.81285
47.32345 105.7157 299.2712 2.7968 -6.931694 10.4544 1.081781 -21.34055 2.87809 1.402965e-06 25.15373 -9.036766e-07 1.189019 -10.62487 -9.188973 -5.295199 17.67393 -12.71593 -1.065938e-06 12.31764 5.307072e-06 -4.876682 -20.7981 16.90113 -3.025153 0.4823503 1.730835 1.266335 7.286736 -6.949423 2.241992 23.48543 6.209939 1.579205 -16.88721 9.079968 1.448005 -13.77121 9.383453 88.92202 24.74872 -19.98056 8.251306e-08 -3.167599e-07 10.48267 -18.51603 11.8994 8.346926 6.348235 -18.93079 -4.251286 -82.38091 27.62199 3.791342 -7.83038e-07 4.956797e-07 -23.12813 -0.9710665 9.592655 12.73342
47.94213 104.5587 304.4505 2.555844 -6.638474 10.70284 1.429941 -23.22748 2.429694 1.716494e-06 21.08127 -8.378244e-07 0.3891371 -11.00211 -9.199805 -5.105615 19.27963 -12.71981 -6.657375e-07 14.07698 5.293429e-06 -5.443124 -20.98946 16.36579 -2.809872 0.6366216 1.347902 1.48643 6.955017 -7.056384 2.303791 23.62319 6.168169 1.577522 -17.08553 9.129767 1.281706 -13.10241 9.189141 89.25729 24.82288 -20.64512 1.066046e-07 -5.649187e-07 9.042531 -17.71768 11.53636 7.828067 6.628197 -19.2702 -4.114449 -81.68072 27.67227 2.134709 -1.227469e-06 5.479343e-07 -24.08874 -0.3943777 9.97364 11.96352
48.54094 103.6035 309.9046 2.238282 -6.558334 10.91066 1.856042 -24.00322 2.339969 1.873469e-06 20.32003 -7.935058e-07 -0.3263591 -10.49096 -9.324365 -4.926558 20.77182 -12.81186 -2.657262e-07 17.15902 5.546839e-06 -6.476737 -20.44216 15.57714 -2.482228 0.6944283 0.9710425 1.636237 6.738826 -7.092593 2.408835 23.77077 6.114099 1.538999 -17.34313 9.258798 1.200097 -12.57278 8.990444 89.97685 24.69833 -21.13302 1.148761e-07 -6.007521e-07 7.991268 -17.05339 11.35379 7.514339 6.602834 -19.23147 -3.965307 -81.85435 27.89816 1.672963 -1.708927e-06 7.149927e-07 -23.89579 -0.1672217 10.14026 11.80077
49.1501 103.0635 315.6068 1.954336 -6.733603 11.09119 2.386202 -23.49401 2.609708 1.916512e-06 21.86351 -8.740295e-07 -1.111603 -9.646528 -9.436372 -4.772434 21.51915 -12.96528 1.584918e-07 21.71235 5.513291e-06 -7.437674 -19.19989 14.94717 -2.105345 0.6817634 0.7304815 1.702423 6.698412 -7.022125 2.530469 23.90303 5.997564 1.480354 -17.58364 9.35674 1.183935 -12.24742 8.840773 90.56202 24.45843 -21.30295 1.373943e-07 -5.02178e-07 7.288592 -16.33457 11.17788 7.206269 6.29304 -18.92511 -3.845869 -82.45393 28.16353 2.205487 -2.163443e-06 8.586294e-07 -22.77177 -0.09284971 10.29115 11.89496
49.75518 103.044 321.445 1.74255 -7.122473 11.19071 3.055591 -21.71049 3.151263 1.942785e-06 23.90431 -1.097699e-06 -2.053009 -9.17163 -9.463005 -4.598179 21.05006 -13.05989 7.214852e-07 27.98343 4.84211e-06 -8.175426 -17.37372 14.66925 -1.703255 0.6713478 0.708038 1.708288 6.802987 -6.833494 2.656424 24.07023 5.798634 1.417239 -17.78242 9.368796 1.20792 -12.10791 8.775457 90.8685 24.24581 -21.17741 1.840515e-07 -3.81937e-07 6.816078 -15.50564 10.93637 6.817295 5.804384 -18.49635 -3.727379 -83.3183 28.44623 3.394523 -2.598621e-06 9.111363e-07 -21.14738 -0.05667933 10.52067 12.03816
50.35538 103.5409 327.3314 1.698697 -7.714338 11.16825 3.630098 -18.32134 3.738877 1.98396e-06 25.854 -1.415466e-06 -2.953425 -9.22773 -9.319047 -4.441822 18.78417 -12.94384 1.573675e-06 35.19551 3.280912e-06 -8.704427 -15.23932 14.90375 -1.389935 0.7336966 0.9891014 1.613679 7.044296 -6.484638 2.766148 24.4039 5.590132 1.402936 -17.93498 9.305947 1.273642 -12.23504 8.851474 91.10192 24.20154 -20.68993 2.472493e-07 -3.238549e-07 6.721836 -15.05034 10.70693 6.631181 5.255538 -18.02332 -3.595346 -84.77978 28.78888 5.207398 -2.96947e-06 8.250048e-07 -19.25331 -0.1485747 10.72796 12.34028
50.82761 104.3001 332.7557 2.036258 -8.58712 10.98398 3.903038 -14.20352 4.28426 2.147232e-06 26.80023 -1.987513e-06 -3.924726 -10.52526 -9.025474 -4.447168 14.8966 -12.89118 3.10939e-06 41.46567 1.899676e-08 -8.026971 -13.60996 16.26604 -1.375061 0.9076519 1.592625 1.389722 7.400635 -5.971558 2.842488 24.83289 5.317756 1.430519 -17.82507 9.071835 1.307421 -12.58513 9.053951 90.32613 24.27031 -19.68899 3.736897e-07 -4.612568e-07 6.836021 -14.54869 10.08535 6.22121 4.794668 -17.68312 -3.574584 -85.5423 28.98451 6.609877 -3.145234e-06 4.183401e-07 -17.64094 0.02877395 11.30851 12.07628
51.25049 105.2991 338.001 2.199232 -9.200408 10.58337 4.068633 -9.490501 4.498864 2.253595e-06 26.71506 -2.268574e-06 -4.728976 -11.64109 -8.517582 -4.275566 10.40106 -12.52403 4.856011e-06 46.61711 -2.986906e-06 -7.922147 -11.8945 17.25186 -1.31837 1.087456 2.21859 1.178873 7.676352 -5.434851 2.885221 25.27976 5.131386 1.494284 -17.86776 8.86953 1.293184 -13.10628 9.263513 89.94485 24.48022 -18.53326 4.471004e-07 -6.21243e-07 7.288081 -14.68423 9.720353 6.379241 4.428452 -17.32358 -3.435197 -87.08935 29.15254 8.564445 -3.345354e-06 1.339936e-07 -15.96781 -0.003322074 11.60178 12.16746
51.62368 106.3113 342.9554 2.391651 -9.636062 10.01007 3.992924 -4.628667 4.442847 2.349835e-06 25.78194 -2.428441e-06 -5.522775 -12.975 -7.732543 -4.105826 5.276497 -12.19023 6.641566e-06 49.13796 -6.144142e-06 -7.351984 -10.64812 18.5028 -1.415633 1.255843 2.922505 0.9357561 7.915275 -4.846858 2.867646 25.6577 4.99212 1.603915 -17.92357 8.611697 1.225445 -13.84476 9.483962 89.03312 24.82651 -16.97317 5.186701e-07 -8.796321e-07 8.043869 -15.00864 9.211434 6.720373 4.201065 -17.02151 -3.283924 -88.40887 29.14579 10.53242 -3.446343e-06 -2.099375e-07 -14.38712 0.1096688 11.99799 12.01172
